<svg version="1.0" xmlns="http://www.w3.org/2000/svg"
 viewBox="0 0 300.000000 265.000000">
<g transform="translate(0.000000,265.000000) scale(0.050000,-0.050000)"
fill="#000000" stroke="none">
<path d="M3100 5116 c-93 -8 -341 -22 -550 -32 -634 -29 -1032 -192 -1457
-598 -68 -64 -164 -150 -214 -190 -50 -40 -139 -122 -198 -183 -59 -61 -126
-114 -148 -117 -105 -15 -294 -480 -333 -817 -12 -104 -35 -249 -51 -323 -44
-203 -38 -339 20 -451 28 -52 55 -120 61 -151 6 -30 27 -71 46 -90 52 -52 191
-329 273 -544 84 -222 144 -358 310 -700 276 -571 521 -723 1310 -809 918
-100 1637 -11 2193 272 84 42 165 77 180 77 187 1 890 793 1099 1238 238 506
341 1256 224 1632 -24 77 -53 203 -65 280 -12 77 -35 185 -50 240 -15 55 -33
154 -40 221 -13 117 -18 126 -138 240 -137 131 -390 314 -483 349 -32 12 -81
43 -109 68 -74 68 -532 302 -666 340 -184 53 -839 79 -1214 48z m920 -125 c28
-6 80 -15 118 -21 151 -25 667 -257 772 -347 22 -19 75 -51 118 -70 43 -19
115 -65 160 -102 45 -36 111 -81 146 -99 90 -45 186 -191 186 -281 0 -40 22
-125 50 -191 27 -65 64 -202 81 -304 17 -102 51 -253 74 -336 134 -472 -47
-1316 -385 -1791 -64 -91 -132 -194 -150 -230 -36 -68 -543 -599 -573 -599
-10 0 -142 -58 -295 -130 -529 -247 -922 -308 -1742 -272 -635 28 -854 65
-927 156 -40 51 -234 154 -328 175 -111 24 -397 463 -475 731 -8 28 -31 82
-52 120 -20 39 -83 183 -139 320 -57 138 -129 291 -161 342 -79 124 -142 307
-148 428 -3 55 -12 208 -20 340 -15 229 -13 247 37 386 29 81 53 176 53 213 0
167 126 379 368 618 742 732 1025 882 1732 917 204 10 447 24 540 33 176 15
872 11 960 -6z"/>
<path d="M3490 4868 c-22 -4 -184 -16 -360 -27 -465 -29 -697 -91 -1404 -372
-443 -176 -471 -191 -646 -348 -82 -74 -170 -145 -195 -158 -135 -72 -390
-595 -391 -803 0 -91 25 -503 34 -552 4 -21 14 -87 22 -147 8 -60 33 -159 54
-220 22 -61 84 -239 137 -397 262 -763 636 -1190 1182 -1352 92 -27 244 -73
337 -102 311 -96 300 -95 750 -60 231 19 427 38 436 43 8 6 45 13 80 17 430
43 760 138 894 258 28 25 75 60 106 79 265 165 505 454 699 843 239 479 242
485 326 970 27 160 60 320 72 358 70 214 -151 930 -382 1234 -99 132 -260 288
-297 288 -10 0 -31 15 -47 33 -15 19 -85 60 -157 92 -71 33 -187 85 -256 117
-70 32 -142 58 -161 58 -18 0 -99 27 -178 60 -184 78 -480 117 -655 88z m535
-201 c69 -29 180 -65 247 -79 351 -75 730 -326 920 -609 147 -219 317 -716
291 -852 -2 -13 5 -30 16 -37 12 -7 21 -30 21 -52 0 -22 -7 -36 -15 -31 -8 5
-15 -29 -15 -76 0 -47 -11 -107 -23 -133 -13 -26 -34 -120 -47 -208 -53 -363
-102 -507 -315 -927 -306 -602 -736 -974 -1237 -1072 -331 -65 -384 -73 -608
-93 -715 -62 -900 -61 -900 4 0 10 -22 18 -49 18 -28 0 -119 22 -203 50 -84
27 -165 50 -180 50 -14 0 -96 37 -182 82 -376 198 -667 598 -847 1168 -35 110
-86 252 -112 316 -57 136 -106 394 -107 564 -1 66 -13 187 -28 270 -67 384
372 1059 791 1216 59 22 233 89 387 150 738 289 1133 364 1805 343 231 -8 282
-16 390 -62z"/>
<path d="M3140 3230 c-19 -22 -19 -44 -3 -85 43 -110 123 -602 143 -885 12
-159 30 -326 40 -370 11 -44 19 -120 20 -170 1 -152 44 -174 270 -139 77 11
208 28 290 38 500 56 667 228 669 691 2 392 -151 591 -645 839 -185 93 -728
149 -784 81z m436 -122 c536 -111 843 -398 843 -788 0 -314 -44 -407 -233
-492 -99 -44 -156 -56 -501 -107 -208 -30 -200 -33 -212 74 -28 234 -54 471
-72 665 -11 116 -38 281 -60 368 -84 325 -69 343 235 280z"/>
<path d="M1728 3192 c-205 -54 -300 -182 -294 -392 5 -140 34 -185 109 -165
37 10 40 21 27 118 -33 268 271 415 478 231 218 -195 199 -506 -56 -923 -83
-137 -157 -281 -163 -320 -7 -39 -20 -89 -29 -111 -69 -161 -29 -306 78 -281
120 28 504 49 554 30 67 -25 241 -24 289 2 61 32 51 116 -16 131 -30 6 -84 19
-120 28 -63 16 -442 -4 -590 -31 -41 -8 -75 -6 -75 3 1 72 71 291 111 353 27
41 49 79 49 85 0 6 45 79 100 162 247 374 178 923 -128 1020 -23 8 -51 25 -62
39 -29 35 -166 46 -262 21z"/>
</g>
</svg>
