<svg version="1.0" xmlns="http://www.w3.org/2000/svg"
  viewBox="0 0 300.000000 262.000000">
<g transform="translate(0.000000,262.000000) scale(0.100000,-0.100000)"
fill="#000000" stroke="none">
<path d="M725 2512 c-96 -37 -167 -86 -249 -170 -120 -124 -257 -321 -290
-417 -50 -145 -83 -332 -87 -495 0 -30 -7 -89 -15 -130 -19 -103 -18 -175 7
-288 11 -53 30 -140 41 -192 22 -104 40 -153 102 -278 43 -87 56 -102 178
-219 102 -98 233 -160 368 -173 164 -16 300 -32 395 -45 87 -12 115 -12 220 1
66 8 190 17 275 18 191 3 304 19 395 55 38 16 88 31 110 35 59 11 208 63 302
107 69 31 96 52 170 126 71 72 101 112 154 209 37 65 71 139 77 164 15 59 30
149 30 180 0 14 4 93 7 175 4 83 3 206 -3 275 -8 111 -13 133 -42 190 -18 36
-41 75 -51 88 -10 13 -28 49 -39 80 -12 31 -40 86 -63 122 -52 82 -153 217
-166 222 -5 1 -52 45 -105 96 -55 52 -105 92 -116 92 -10 0 -43 8 -72 19 -217
77 -485 124 -839 147 -590 39 -610 39 -694 6z m370 -58 c88 -8 198 -15 245
-14 121 0 373 -26 525 -55 146 -28 302 -67 330 -82 10 -6 35 -8 55 -6 21 3 48
-1 62 -8 35 -19 226 -200 265 -252 55 -72 133 -204 150 -254 9 -25 32 -74 51
-107 72 -129 75 -144 68 -375 -15 -429 -13 -404 -42 -478 -52 -134 -122 -242
-219 -338 -84 -84 -96 -92 -185 -127 -52 -20 -134 -45 -182 -56 -49 -12 -116
-35 -151 -52 -82 -40 -209 -60 -392 -60 -77 0 -183 -7 -235 -15 -111 -17 -199
-19 -284 -5 -55 9 -123 16 -366 40 -41 4 -88 12 -103 19 -101 40 -149 69 -207
125 -36 34 -82 75 -103 91 -56 41 -144 228 -176 370 -65 292 -69 331 -52 475
6 52 15 145 21 205 15 175 59 371 102 461 54 111 150 237 270 359 95 95 139
125 206 135 30 5 57 12 60 15 10 9 124 5 287 -11z"/>
<path d="M1669 2286 c-7 -7 -250 -19 -374 -19 -66 1 -212 2 -325 3 -197 3
-312 -7 -403 -33 -37 -10 -127 -94 -127 -117 0 -6 -9 -23 -20 -38 -20 -28
-100 -260 -100 -292 0 -9 -9 -46 -21 -81 -35 -107 -68 -395 -68 -594 0 -81 6
-124 32 -225 30 -113 39 -135 102 -230 74 -114 119 -161 238 -250 89 -67 141
-83 323 -100 60 -5 136 -14 169 -20 153 -28 565 -17 725 19 47 11 131 25 187
31 213 23 406 121 526 267 67 81 93 144 117 278 7 39 17 86 22 105 5 19 12
142 15 273 4 194 2 246 -11 285 -8 26 -20 81 -26 122 -6 41 -18 107 -28 145
-15 62 -23 76 -72 124 -30 29 -73 61 -95 71 -22 9 -61 33 -87 53 -25 20 -59
43 -75 52 -15 8 -49 29 -75 45 -67 41 -170 66 -303 73 -30 2 -71 14 -103 30
-47 24 -129 37 -143 23z m-749 -70 c79 8 116 8 290 -4 80 -6 157 -6 190 -1 30
5 124 12 209 14 147 5 155 4 210 -20 31 -14 65 -25 76 -25 49 0 174 -19 216
-33 26 -8 94 -48 153 -88 112 -78 138 -95 214 -144 56 -36 76 -72 97 -180 9
-44 21 -105 28 -135 18 -84 14 -481 -6 -605 -22 -134 -52 -248 -74 -282 -84
-131 -163 -198 -309 -262 -72 -31 -213 -61 -288 -61 -22 0 -69 -9 -103 -20
-122 -38 -520 -52 -698 -24 -55 8 -145 19 -200 24 -149 13 -203 31 -287 94
-88 65 -138 117 -210 216 -63 87 -70 102 -102 235 -37 152 -40 224 -17 450 23
222 70 432 136 614 9 25 25 57 36 72 10 15 19 36 19 47 0 25 73 92 100 92 18
0 80 13 140 30 13 3 45 3 70 -2 25 -5 74 -6 110 -2z"/>
<path d="M743 1836 c-97 -8 -113 -12 -113 -26 0 -35 22 -39 202 -37 97 1 179
-1 183 -5 10 -10 3 -22 -59 -108 -140 -192 -174 -251 -153 -268 7 -5 67 -12
135 -16 134 -6 163 -16 206 -67 72 -85 81 -148 40 -280 -22 -71 -34 -91 -73
-129 -31 -30 -68 -54 -110 -70 -57 -21 -68 -22 -119 -12 -105 22 -217 57 -255
80 -43 27 -67 23 -67 -11 0 -30 22 -50 85 -77 207 -90 391 -78 513 34 54 50
105 167 122 278 16 111 -41 218 -156 288 -31 19 -57 25 -136 29 l-99 6 67 100
c37 55 81 118 99 140 56 70 77 129 47 132 -9 1 -44 6 -77 11 -101 16 -165 18
-282 8z"/>
<path d="M1568 1813 c-20 -2 -40 -9 -45 -16 -12 -16 3 -267 22 -377 8 -47 17
-185 20 -308 5 -205 7 -225 26 -245 21 -23 18 -23 209 -14 184 10 318 52 393
124 89 86 115 180 98 356 -9 105 -15 127 -51 205 -23 48 -53 100 -68 115 -44
46 -181 114 -284 141 -94 25 -200 31 -320 19z m295 -79 c104 -24 236 -93 270
-141 55 -80 78 -148 89 -260 14 -152 0 -227 -55 -292 -33 -39 -53 -53 -97 -67
-30 -9 -73 -24 -95 -32 -27 -10 -88 -17 -186 -20 l-146 -4 -6 133 c-4 74 -7
171 -7 217 0 46 -7 111 -14 145 -16 69 -31 311 -21 327 10 16 188 12 268 -6z"/>
</g>
</svg>
