<svg class="svgBox" version="1.0" xmlns="http://www.w3.org/2000/svg" viewBox="0 0 300 194">
    <path class="path1" d="M17 26.5c-.9 1.1-1 2.2-.2 4.2.5 1.6 1.8 7.1 2.9 12.3 2.2 11.5 2.4 38 .4 51.3-.7 4.8-1 9.1-.7 9.4.7.7 14.2 1.1 16.7.5 1.1-.2 1.9-1.8 2.2-4.5.6-4.3 5.7-17.5 8.2-21.4 1.3-1.9 2.1-2.1 7.2-1.6 3.2.2 8.2.9 11.1 1.4 7.7 1.3 8.8.4 9.5-7.7.6-5.7.4-6.9-1.1-8.1-.9-.7-2.5-1.1-3.4-.9-1 .2-4.8-.2-8.5-1-3.8-.8-7.8-1.7-9-2-5.5-1.1-1.3-2.2 10.1-2.6 7.9-.2 12.9-.8 13.9-1.6 1.4-1.2 3.3-9.6 4.2-18.4.3-2.7 0-3.8-1.3-4.3-.9-.4-9.8-.8-19.7-1-21-.3-28.4-1.1-34-3.6-4.9-2.3-6.9-2.4-8.5-.4zM109.7 32.6c-.3.3-5.4.8-11.3 1-10.7.4-14.1 1.6-11 3.9 1.9 1.4 2.6 7.7 2.6 22.2 0 12.9-2 33.8-4 40.3-1.5 5.2-1.3 5.8 2.7 7.5 2.9 1.2 9 1.6 29.7 1.8l26.1.2 1.2-5.9c.6-3.2 1.6-6.3 2.2-6.9.6-.6 1.1-2.1 1.1-3.4 0-3-2.9-3.7-13.2-2.9-4.6.3-13.1.9-19 1.2l-10.8.6v-4.9c0-2.7 1.6-10.3 3.5-16.8 4.8-16.6 8.9-35.1 8.2-36.9-.6-1.6-6.7-2.3-8-1zM152.5 41.7c.4 2.7.9 11.5 1 19.8.2 8.2.9 20.4 1.5 27 .5 6.6 1.1 13.6 1.3 15.5.2 3.2.5 3.5 4.2 4.1 2.2.4 5.3 1.2 6.8 1.8 3.5 1.4 22.7 1.4 26.2.1 2.4-.9 2.5-1.3 1.9-4.7-1.5-8.3-2.8-10.8-5.4-10.5-1.4.1-6 .5-10.2.8l-7.8.6v-5.9c-.1-.8 10.8-3.4 15.5-3.8 1.7-.1 3.5-.3 4.2-.3 2.9-.4 3.4-11.8.5-14-1-.8-5.3-1.2-12.4-1.2h-10.7l.5-3.3c1.3-7.6 1.1-7.4 6-8.1 2.6-.3 6.5-.6 8.8-.6 2.3 0 5.2-.3 6.4-.7 2.3-.6 2.4-.8 1.7-7.7-.8-8.3-1.9-9.6-7.6-8.9-4.8.7-18.3-1.4-22.1-3.3-1.5-.8-4.6-1.4-6.9-1.4h-4.2l.8 4.7zM223.3 42.8l-9.3.3v2.8c0 2.3 1.4 3.9 7.3 8.8 6.1 5 7.8 7.2 11.4 14.3 3.9 7.7 4.1 8.6 2.8 10.5-.9 1.1-2.7 3.8-4.2 6-1.4 2.1-3.9 5.3-5.5 7-1.6 1.6-3.8 4.9-4.8 7.2-1.1 2.4-2.4 4.3-3 4.3-.5 0-1 .9-1 2 0 1.9 1.2 2.5 3.5 2 .6-.1 3.7-.4 7-.6 8.5-.5 10.5-1.1 10.5-3.3 0-1 1.2-4 2.6-6.5l2.6-4.7 2.7 2.3c1.4 1.4 3.9 3.2 5.4 4.2 1.6 1 3.5 3.3 4.3 5.1.7 1.8 2.2 3.6 3.2 3.9 3.3 1.1 15.3.9 16.5-.3 1.6-1.6-.6-4.9-6.9-10.1-3-2.5-6.8-6.7-8.4-9.5-1.6-2.7-3.9-6.5-5.1-8.3l-2.2-3.3 14.7-14.7c8-8 14.6-15 14.6-15.4 0-.4-.8-1.6-1.9-2.7-1.6-1.6-2.6-1.7-7.2-1-3 .5-7.1 1-9.2 1.1-3.1.1-3.8.5-4.4 2.7-.9 3.8-3.8 9.4-6 11.3-1.7 1.6-2.1 1.4-8.1-4-3.5-3.1-6.9-6.8-7.5-8.1-1.6-3.2-3.6-3.7-14.4-3.3zM46 102.9c-.5 1.1-1 3.1-1 4.5s-1.1 7.7-2.4 13.9c-1.8 8.4-3.6 13.8-7.1 20.6-2.6 5-4.4 9.8-4.1 10.6.7 1.8 7.6 4.9 22.1 9.7 12.9 4.3 33.7 9.8 36.8 9.8 3.5 0 31.8 7 34.9 8.6 4.4 2.3 9.9.6 12.5-3.9 1.1-1.7 4.8-6.8 8.4-11.2 3.5-4.4 7.7-10.3 9.3-13 1.6-2.8 4.3-6.2 6-7.6l3-2.6-2.6-1.7c-5.5-3.6-31.3-12.9-55.8-20.1-6.9-2-17-5.2-22.5-7.1C78 111.5 72.8 110 72 110c-.8 0-5.8-2-11-4.5-10.5-5-13.4-5.5-15-2.6zm13.3 8.6c4.1 1.9 8.2 3.5 9.1 3.5 1 0 4.5 1.1 7.9 2.4 6.3 2.4 11.9 4.1 32.7 10.2 6.3 1.8 14 4.3 17 5.4 3 1.2 10.4 3.9 16.4 6.1 6.1 2.2 11.1 4.1 11.3 4.3.4.3-3.4 6-16.8 25.3l-4.9 7.2-3.3-1.4c-2.8-1.1-16.6-4.3-43.7-10.1-10.1-2.1-44.2-12.5-45.8-13.9-.2-.2 1.5-4.6 3.7-9.8 2.3-5.3 4.1-10.2 4.1-11 0-.7.9-4.7 2-8.8 1.1-4.1 2-8.6 2-10.2 0-1.5.2-2.7.5-2.7.2 0 3.7 1.6 7.8 3.5z"/>
    <path class="path2" d="M56.2 116.7c-1.1 1-3.2 5.2-4.7 9.3-1.6 4.1-3.6 9.1-4.6 11.1-.9 1.9-1.4 4-1.1 4.5 1.3 1.9 18.6 7.4 23.2 7.4 4 0 4.8-.4 6.3-2.9 2.6-4.5.2-11.8-4.4-13.3-.9-.3-.7-1.2.6-3.1 1.6-2.4 1.6-3.3.6-6.8-1-3.3-2-4.4-5.4-6-5.3-2.3-7.9-2.4-10.5-.2zm8.6 6.2c2.4 1.5 1 4.6-2.1 4.6-1.8 0-3.2.7-3.9 1.9-1.4 2.5 1.7 5.2 7.9 6.9 3.5.9 4.3 1.5 4.1 3.1-.5 3.5-3.1 4.1-9.4 2.1-3.3-.9-6.3-2.1-6.7-2.5-.4-.3.6-4.3 2.4-8.8 3.1-8.2 4.4-9.4 7.7-7.3zM89.1 132.6c-3.6 3-5.1 5.5-6.2 10.3-1.5 6.7 3.3 11.1 11.9 11.1 4.7 0 11.2-6.3 11.2-11 0-4.2-3.2-8.5-8-11-5-2.5-5.2-2.5-8.9.6zm8 5.3c2 1.6 2.2 2.3 1.4 4.7-.6 1.6-2.2 3.5-3.7 4.4-2.4 1.3-2.9 1.3-4.2 0-1.2-1.2-1.2-2.4-.3-6.3 1.3-5.3 2.9-5.9 6.8-2.8zM111 140.7c0 .9.5 3.2 1.2 5 1.2 3.2 1.1 3.5-3 7.6-2.3 2.3-4.2 5-4.2 6 0 2.7 5.3 2.1 9-1l3.2-2.7 2 2.7c1.4 1.9 2.9 2.7 4.9 2.7 3.5 0 3.8-2 .9-5.7-2.6-3.3-2.5-4.2.5-5.3 5.2-2 1.9-8-3.3-6.2-2.5.9-3 .7-4.5-1.9-1.8-3.3-6.7-4.2-6.7-1.2z"/>
</svg>
