<svg viewBox="0 0 176 109" fill="none" xmlns="http://www.w3.org/2000/svg">
<path class="path1" d="M88 2C57.4666 3.33222 42.3285 5.14926 3.50002 2C1.89032 36.5613 0.452211 55.9385 3.50002 90.5C36.2744 87.74 54.7871 87.8789 88 90.5V103M88 103C79.2793 105.401 69.1761 104.74 44 103V107.5C55.9925 106.924 67.8897 107.175 88 107.5V103ZM28.5 13.5H88M88 24.5H55.5M88 34.5H39.5M38 42.5H88M88 58H45M88 65.5H45" stroke="black" stroke-width="2"/>
<path class="path2" d="M88 2C118.533 3.33222 133.672 5.14926 172.5 2C174.11 36.5613 175.548 55.9385 172.5 90.5C139.726 87.74 121.213 87.8789 88 90.5V103M88 103C96.7207 105.401 106.824 104.74 132 103V107.5C120.007 106.924 108.11 107.175 88 107.5V103ZM147.5 13.5H88M88 24.5H120.5M88 34.5H136.5M138 42.5H88M88 58H131M88 65.5H131" stroke="black" stroke-width="2"/>
</svg>
